<svg width="136" height="49" viewBox="0 0 136 49" fill="none" xmlns="http://www.w3.org/2000/svg">
<g clip-path="url(#clip0_2203_1279)">
<path d="M0 44.1189C13.878 44.4089 23.618 44.9269 32.321 45.5569L32.699 42.8809C23.817 43.0799 13.735 43.4749 0 44.1189Z" fill="black"/>
<path d="M88.815 7.57278L83.94 31.0308L85.667 7.57278H78.251L78.657 40.3728L78.557 41.6428C78.5397 41.8847 78.4721 42.1203 78.3584 42.3345C78.2448 42.5488 78.0876 42.7369 77.897 42.8868C77.3987 43.1528 76.8336 43.2675 76.271 43.2168C61.408 42.8298 51.24 42.6358 40.237 42.7528L39.756 46.1328C50.629 47.0248 61.275 48.0498 78.505 48.9548C79.5336 49.0805 80.5775 48.9672 81.5552 48.6236C82.5329 48.28 83.4181 47.7154 84.142 46.9738C85.032 45.9678 85.869 44.0288 86.681 41.1858L96.181 7.57178L88.815 7.57278Z" fill="black"/>
<path d="M135.472 13.7711H129.699L125.711 23.989L128.037 7.54004H122.181L117.446 41.268H123.302L125.047 28.8481L125.961 41.268H132.232L130.695 25.9821L135.472 13.7711Z" fill="black"/>
<path d="M111.215 23.1128H117.362L117.735 20.6618C117.846 19.8312 117.923 19.1662 117.964 18.6668C118.005 18.1675 118.026 17.7385 118.027 17.3798C118.027 15.8012 117.584 14.7765 116.698 14.3058C115.078 13.7147 113.351 13.4741 111.631 13.5998C108.751 13.5998 106.792 13.9388 105.753 14.6168C104.714 15.2948 104.029 16.8662 103.697 19.3308L103.281 22.4048C103.137 23.2282 103.054 24.0612 103.032 24.8968C103.016 25.5006 103.167 26.0971 103.468 26.6208C103.865 27.2122 104.382 27.7142 104.984 28.0948C106.147 28.7615 107.268 29.3988 108.348 30.0068C109.428 30.6148 109.968 31.2655 109.968 31.9588L109.468 35.6148C109.385 36.3615 109.011 36.7355 108.346 36.7368C108.228 36.7542 108.108 36.7332 108.003 36.677C107.899 36.6208 107.815 36.5324 107.764 36.4248C107.655 35.9836 107.613 35.5285 107.64 35.0748L108.14 31.3748H101.993L101.577 34.3648C101.438 35.3608 101.355 36.0608 101.328 36.4648C101.3 36.8648 101.286 37.2468 101.286 37.6068C101.286 39.2128 101.729 40.2512 102.616 40.7218C103.503 41.1925 105.206 41.4275 107.725 41.4268C110.855 41.4268 112.876 41.0268 113.789 40.2268C114.702 39.4268 115.366 37.4745 115.783 34.3698L116.283 30.8808L116.366 29.7588C116.366 28.2635 115.203 26.8928 112.877 25.6468C112.268 25.3135 111.521 24.9258 110.634 24.4838C110.285 24.3201 109.987 24.0626 109.776 23.7401C109.564 23.4176 109.445 23.0426 109.434 22.6568V21.7428L109.69 19.9978C109.863 18.8898 110.251 18.3362 110.853 18.3368C111.453 18.3368 111.76 18.6138 111.76 19.1668L111.677 19.9988L111.215 23.1128Z" fill="black"/>
<path d="M91.65 41.2691H97.756L98.628 35.1631H92.523L91.65 41.2691Z" fill="black"/>
<path d="M60.677 41.231L62.81 26.049L63.927 41.231H71.594L69.716 22.545L75.555 7.617H68.497L63.623 20.108L66.467 0H59.307L53.518 41.231H60.677Z" fill="black"/>
<path d="M13.2509 35.3671C13.2169 35.8578 13.2 36.3245 13.2 36.7671C13.2 38.7305 13.7416 39.9998 14.825 40.5751C15.9083 41.1504 17.9903 41.4381 21.0709 41.4381C24.8956 41.4381 27.367 40.9475 28.485 39.9661C29.603 38.9848 30.4153 36.5981 30.922 32.8061L33.308 16.0501C33.4413 15.0348 33.5343 14.2225 33.5869 13.6131C33.6396 13.0038 33.6649 12.4788 33.6629 12.0381C33.6629 10.1088 33.1213 8.85646 32.0379 8.28113C30.9546 7.70579 28.8896 7.41611 25.8429 7.41211C21.9503 7.41211 19.4536 7.91211 18.353 8.91211C17.2523 9.91211 16.4483 12.2905 15.9409 16.0471L13.5539 32.8031C13.3859 34.0211 13.2849 34.8758 13.2509 35.3671ZM23.5509 15.2341L23.6509 14.4731C23.6501 14.2967 23.6861 14.1222 23.7566 13.9605C23.8271 13.7988 23.9305 13.6536 24.0603 13.5342C24.1901 13.4148 24.3434 13.3237 24.5103 13.2669C24.6773 13.21 24.8543 13.1887 25.0299 13.2041C25.1736 13.1827 25.3202 13.2081 25.4483 13.2765C25.5763 13.345 25.679 13.4528 25.741 13.5841C25.8749 14.1232 25.9265 14.6795 25.894 15.2341L23.2029 34.4281C23.2047 34.604 23.1697 34.7784 23.1 34.94C23.0304 35.1016 22.9277 35.2468 22.7986 35.3664C22.6695 35.4859 22.5167 35.577 22.3503 35.634C22.1838 35.691 22.0072 35.7125 21.8319 35.6971C21.6884 35.7184 21.5417 35.6929 21.4137 35.6245C21.2857 35.5561 21.1831 35.4483 21.1209 35.3171C20.9874 34.7779 20.9362 34.2216 20.9689 33.6671L23.5509 15.2341Z" fill="#EB1C2B"/>
<path d="M1.77595 40.3929C2.62195 41.0196 4.21295 41.3326 6.54895 41.3319H10.1539L10.9159 35.6949H9.59595C8.74995 35.6949 8.32695 35.2549 8.32695 34.3749L8.42695 33.3079L11.22 13.4079H14.0639L14.8759 7.6199H12.0319L13.0979 0.00292969H5.58395L4.51695 7.6199H2.53694L1.72395 13.4079H3.70394L0.911945 33.3079C0.845278 33.8159 0.760614 34.4423 0.657947 35.1869C0.562731 35.8428 0.511616 36.5043 0.504947 37.1669C0.441844 37.7672 0.52442 38.3739 0.745677 38.9355C0.966934 39.497 1.32035 39.997 1.77595 40.3929Z" fill="#EB1C2B"/>
<path d="M40.687 39.6058C41.1926 40.165 41.8098 40.6121 42.4987 40.9183C43.1876 41.2246 43.9331 41.3831 44.687 41.3839C45.5415 41.4392 46.3974 41.2988 47.1894 40.9731C47.9814 40.6475 48.6885 40.1453 49.257 39.5049C50.4841 37.7695 51.2181 35.734 51.381 33.6148L53.92 15.7419C53.954 15.4712 54.0206 15.0648 54.12 14.5228V12.7459C54.2211 11.3315 53.8358 9.92513 53.028 8.75983C52.5731 8.27784 52.014 7.90613 51.3936 7.67304C50.7732 7.43994 50.1077 7.35165 49.448 7.41486C47.7937 7.45231 46.2081 8.08294 44.98 9.19184L45.18 7.61783H37.675L32.699 42.8818L32.321 45.5578L31.835 49.0009H39.351L39.759 46.1348L40.24 42.7549L40.687 39.6058ZM44.055 15.7408C44.19 14.4548 44.706 13.8118 45.587 13.8118C45.7246 13.7951 45.8639 13.8232 45.9844 13.8918C46.1049 13.9604 46.2001 14.066 46.256 14.1928C46.387 14.6981 46.4383 15.2208 46.408 15.7419L43.887 33.0989C43.751 34.3989 43.277 35.0378 42.473 35.0378C42.067 35.0378 41.813 34.9108 41.711 34.6568C41.5801 34.1519 41.5288 33.6296 41.559 33.1088L44.055 15.7408Z" fill="#EB1C2B"/>
</g>
<defs>
<clipPath id="clip0_2203_1279">
<rect width="135.472" height="49" fill="white"/>
</clipPath>
</defs>
</svg>
