<svg width="63" height="25" viewBox="0 0 63 25" fill="none" xmlns="http://www.w3.org/2000/svg">
<g clip-path="url(#clip0_2108_4070)">
<path d="M12 1.07129C5.69141 1.07129 0.571411 6.21415 0.571411 12.557C0.571411 18.317 4.79998 23.0713 10.2857 23.9056V15.5856H7.47427V12.5684H10.3086V10.5684C10.3086 7.25415 11.9086 5.79129 14.6628 5.79129C15.9771 5.79129 16.6857 5.88272 17.0057 5.92843V8.557H15.1314C13.9657 8.557 13.5543 9.677 13.5543 10.9341V12.5799H16.9828L16.5257 15.597H13.5543V23.9284C16.2979 23.5473 18.8107 22.1856 20.628 20.0952C22.4453 18.0047 23.4442 15.327 23.44 12.557C23.4286 6.21415 18.3086 1.07129 12 1.07129Z" fill="#909090"/>
</g>
<g clip-path="url(#clip1_2108_4070)">
<path d="M62.9543 5.32264C62.0743 5.72264 61.1257 5.9855 60.1429 6.11121C61.1656 5.4956 61.9294 4.52875 62.2914 3.39121C61.3429 3.96264 60.2914 4.36264 59.1829 4.59121C58.4502 3.78603 57.4699 3.24824 56.3972 3.06302C55.3244 2.87781 54.2206 3.05573 53.2603 3.56864C52.3001 4.08154 51.5384 4.9001 51.0959 5.89471C50.6534 6.88932 50.5553 8.00314 50.8171 9.05979C48.8678 8.95929 46.9613 8.45061 45.2209 7.56667C43.4806 6.68272 41.9453 5.44321 40.7143 3.92836C40.0818 5.00144 39.8869 6.27685 40.1699 7.48985C40.453 8.70285 41.1922 9.76028 42.2343 10.4426C41.4229 10.4426 40.6686 10.2141 40.0057 9.87121V9.91693C40.0092 11.0471 40.402 12.1415 41.1181 13.0158C41.8343 13.8901 42.8298 14.4909 43.9371 14.7169C43.2189 14.9175 42.4638 14.9488 41.7314 14.8084C42.0418 15.7826 42.6498 16.6351 43.4697 17.246C44.2897 17.8569 45.2805 18.1954 46.3029 18.2141C45.2891 19.0184 44.1252 19.6126 42.8791 19.9618C41.633 20.3111 40.3299 20.4085 39.0457 20.2484C41.2883 21.691 43.8992 22.4568 46.5657 22.4541C55.5714 22.4541 60.5086 14.9798 60.5086 8.49979V7.85979C61.4715 7.1655 62.3002 6.30194 62.9543 5.31121V5.32264Z" fill="#909090"/>
</g>
<defs>
<clipPath id="clip0_2108_4070">
<rect width="24" height="24" fill="white" transform="translate(0 0.5)"/>
</clipPath>
<clipPath id="clip1_2108_4070">
<rect width="24" height="24" fill="white" transform="translate(39 0.5)"/>
</clipPath>
</defs>
</svg>
